<?xml version="1.0" standalone="no"?><!DOCTYPE svg PUBLIC "-//W3C//DTD SVG 1.1//EN" "http://www.w3.org/Graphics/SVG/1.1/DTD/svg11.dtd"><svg t="1496751618654" class="icon" style="" viewBox="0 0 1024 1024" version="1.1" xmlns="http://www.w3.org/2000/svg" p-id="2406" xmlns:xlink="http://www.w3.org/1999/xlink" width="200" height="200"><defs><style type="text/css"></style></defs><path d="M504.96 13.376c-1.408-11.328-20.032-11.328-21.44 0C436.544 391.872 198.784 469.248 198.784 727.168c0 161.216 135.232 291.968 295.424 291.968 160.128 0 295.36-130.752 295.36-291.968C789.632 469.248 551.872 391.872 504.96 13.376zM568.064 913.92c-14.528 0-26.304-12.224-26.304-27.264 0-15.04 11.776-27.264 26.304-27.264 36.224 0 65.728-30.464 65.728-67.968 0-15.04 11.776-27.264 26.304-27.264 10.88 0 20.288 6.848 24.256 16.64 1.344 3.264 2.112 6.912 2.112 10.688C686.336 858.944 633.28 913.92 568.064 913.92z" p-id="2407" fill="rgba(228,84,94,1)"></path></svg>